CHLOE 2009 DvDRip XviD & Sample

Format : AVI
Format/Info : Audio Video Interleave
File size : 649 MiB
Duration : 1h 36mn
Overall bit rate : 472 Kbps
Writing application : MEncoder SVN-r29352(20090610-gcc4.3.3)
Writing library : MPlayer

Video
ID : 0
Format : MPEG-4 Visual
Format profile : AdvancedSimple@L5
Format settings, BVOP : Yes
Format settings, QPel : No
Format settings, GMC : No warppoints
Format settings, Matrix : Default (H.263)
Codec ID : XVID
Codec ID/Hint : XviD
Duration : 1h 36mn
Bit rate : 836 Kbps
Width : 640 pixels
Height : 360 pixels
Display aspect ratio : 16:9
Frame rate : 25.000 fps
Resolution : 24 bits
Colorimetry : 4:2:0
Scan type : Progressive
Bits/(Pixel*Frame) : 0.145
Stream size : 575 MiB (89%)
Writing library : XviD 1.2.1 (UTC 2008-12-04)

Audio
ID : 1
Format : MPEG Audio
Format version : Version 2
Format profile : Layer 3
Codec ID : 55
Codec ID/Hint : MP3
Duration : 1h 36mn
Bit rate mode : Constant
Bit rate : 96.0 Kbps
Channel(s) : 2 channels
Sampling rate : 22.05 KHz
Resolution : 16 bits
Video delay : 40ms
Stream size : 66.0 MiB (10%)
Alignment : Aligned on interleaves
Interleave, duration : 26 ms (0.65 video frame)
Interleave, preload duration : 522 ms
Writing library : LAME3.98

Catherine (Julianne Moore) and David Stewart (Liam Neeson) are well-to-do couple who have upstanding jobs and a 17-year-old son, Michael (Max Thieriot). They live in Toronto, Ontario, Canada. Catherine suspects David is cheating and, as such, hires an escort named Chloe (Amanda Seyfried) to seduce him and report back to her with details of what goes on. Through unforeseen events the young call-girl puts the family in danger. 
http://www.imdb.com/title/tt1352824/

PLEASE SEED AND ENJOY THANKS

screen shots 
http://img709.imageshack.us/img709/7157/chloexvidviceavithumbs2.jpg